<svg width="17" height="17" viewBox="0 0 17 17" fill="none" xmlns="http://www.w3.org/2000/svg">
<path d="M4.46645 16.6745C4.07805 16.4516 3.73381 16.1762 3.44698 15.8589C3.13146 15.5313 2.83913 15.1877 2.57157 14.8298C1.94368 14.0364 1.45128 13.1692 1.10947 12.255C0.698846 11.193 0.5 10.175 0.5 9.17941C0.5 8.0675 0.778877 7.09683 1.32432 6.28121C1.72864 5.64371 2.32311 5.11098 3.04621 4.73812C3.74698 4.36269 4.55217 4.15723 5.37695 4.1434C5.66568 4.1434 5.97657 4.17951 6.30654 4.24854C6.54355 4.30642 6.83228 4.39775 7.18503 4.51139C7.63382 4.6606 7.88068 4.75193 7.96441 4.77423C8.22728 4.85707 8.44829 4.89318 8.62189 4.89318C8.75364 4.89318 8.93955 4.85707 9.15071 4.80184C9.26953 4.76573 9.49361 4.70201 9.81435 4.5836C10.132 4.48377 10.382 4.39828 10.5808 4.33456C10.8855 4.25704 11.1804 4.18535 11.4433 4.14924C11.7549 4.10687 12.0712 4.09564 12.3858 4.11579C12.931 4.14653 13.468 4.24618 13.9796 4.41156C14.8163 4.70201 15.4928 5.15549 15.9964 5.80013C15.7836 5.91328 15.5838 6.0438 15.3999 6.18988C14.9995 6.49604 14.6584 6.85547 14.3896 7.25454C14.0383 7.79991 13.8562 8.41427 13.8608 9.03817C13.8738 9.8044 14.1015 10.4793 14.5503 11.0629C14.8803 11.4954 15.3091 11.8652 15.8105 12.1498C16.0672 12.299 16.2882 12.4015 16.5 12.4706C16.4009 12.7361 16.295 12.9931 16.17 13.2479C15.8866 13.8195 15.5431 14.3675 15.1438 14.885C14.788 15.3305 14.5091 15.6624 14.2973 15.8833C13.9673 16.2205 13.6497 16.478 13.3289 16.6575C12.9762 16.8593 12.5594 16.9671 12.1359 16.9671C11.849 16.9766 11.5622 16.9466 11.2863 16.8784C11.0493 16.8094 10.8147 16.7345 10.5839 16.649C10.3439 16.5539 10.0964 16.4735 9.84329 16.4085C9.21763 16.2699 8.56164 16.2689 7.93547 16.4058C7.67876 16.4695 7.4319 16.5439 7.18811 16.6352C6.84521 16.7595 6.61743 16.8428 6.48569 16.8784C6.22282 16.9448 5.9501 16.9862 5.6743 17C5.24767 17 4.84998 16.8949 4.45598 16.6819L4.46645 16.6745ZM10.0932 3.6039C9.53547 3.84445 9.00296 3.94693 8.47414 3.91348C8.39103 3.45416 8.47414 2.98423 8.69515 2.46969C8.88331 2.03377 9.16132 1.6308 9.51577 1.28024C9.89008 0.91121 10.3443 0.608727 10.8529 0.389755C11.3947 0.149211 11.9112 0.019116 12.4049 0C12.4689 0.481087 12.4049 0.954209 12.1999 1.46556C12.0102 1.9176 11.7327 2.33849 11.3793 2.71023C11.0185 3.07977 10.5759 3.38343 10.0772 3.60337L10.0932 3.6039Z" fill="black"/>
</svg>
