<svg width="21" height="20" viewBox="0 0 21 20" fill="none" xmlns="http://www.w3.org/2000/svg">
<path d="M4.9325 12.0865L4.23631 14.6855L1.69178 14.7393C0.931335 13.3288 0.5 11.7151 0.5 10.0002C0.5 8.34196 0.903288 6.77818 1.61814 5.40125H1.61869L3.88404 5.81656L4.8764 8.06832C4.6687 8.67384 4.5555 9.32385 4.5555 10.0002C4.55558 10.7343 4.68855 11.4376 4.9325 12.0865Z" fill="#FBBB00"/>
<path d="M20.3251 8.13202C20.4399 8.73695 20.4998 9.36169 20.4998 10.0002C20.4998 10.7161 20.4245 11.4145 20.2811 12.0881C19.7943 14.3805 18.5223 16.3822 16.7602 17.7987L16.7597 17.7981L13.9063 17.6525L13.5025 15.1316C14.6717 14.4459 15.5855 13.3728 16.0668 12.0881H10.7195V8.13202H16.1448H20.3251Z" fill="#518EF8"/>
<path d="M16.76 17.7982L16.7606 17.7988C15.0468 19.1763 12.8698 20.0005 10.5 20.0005C6.69173 20.0005 3.3807 17.8719 1.69165 14.7394L4.93237 12.0866C5.77687 14.3405 7.95109 15.9449 10.5 15.9449C11.5956 15.9449 12.6221 15.6487 13.5028 15.1317L16.76 17.7982Z" fill="#28B446"/>
<path d="M16.883 2.30223L13.6434 4.95446C12.7319 4.38468 11.6543 4.05554 10.4999 4.05554C7.8933 4.05554 5.67842 5.73357 4.87622 8.06826L1.61847 5.40118H1.61792C3.28224 2.19234 6.63504 0 10.4999 0C12.9264 0 15.1511 0.864311 16.883 2.30223Z" fill="#F14336"/>
</svg>
