<svg xmlns="http://www.w3.org/2000/svg" enable-background="new 0 0 512 512" viewBox="0 0 512 512" id="student"><linearGradient id="a" x1="302.594" x2="-139.407" y1="-27.673" y2="426.327" gradientUnits="userSpaceOnUse"><stop offset=".197" stop-color="#fbb03b"></stop><stop offset="1" stop-color="#fcd372"></stop></linearGradient><path fill="url(#a)" d="M226,106c-1.189,0-2.379-0.212-3.511-0.637l-120-45
					c-3.967-1.487-6.566-5.313-6.487-9.548c0.078-4.236,2.816-7.962,6.836-9.302l120-40c2.053-0.685,4.271-0.685,6.324,0l120,40
					c4.02,1.339,6.758,5.066,6.836,9.302c0.079,4.235-2.52,8.061-6.487,9.548l-120,45C228.379,105.788,227.189,106,226,106z
					 M135.959,51.555L226,85.32l90.041-33.765L226,21.541L135.959,51.555z"></path><linearGradient id="b" x1="327.585" x2="-114.415" y1="-3.342" y2="450.657" gradientUnits="userSpaceOnUse"><stop offset=".197" stop-color="#fbb03b"></stop><stop offset="1" stop-color="#fcd372"></stop></linearGradient><path fill="url(#b)" d="M316,151H136c-5.523,0-10-4.477-10-10V61c0-5.523,4.477-10,10-10
					s10,4.477,10,10v70h160V65.364c-0.641-1.319-1-2.799-1-4.364c0-5.523,4.478-10,10-10h1c5.522,0,10,4.477,10,10v80
					C326,146.523,321.522,151,316,151z"></path><linearGradient id="c" x1="492.546" x2="50.546" y1="157.259" y2="611.259" gradientUnits="userSpaceOnUse"><stop offset=".197" stop-color="#fbb03b"></stop><stop offset="1" stop-color="#fcd372"></stop></linearGradient><path fill="url(#c)" d="M421,471H31c-5.522,0-10-4.477-10-10v-41.52
				c0-24.475,15.752-45.645,39.196-52.679l112.536-33.762l11.747-45.348c1.385-5.346,6.843-8.56,12.188-7.173
				c5.347,1.385,8.558,6.842,7.173,12.189l-13.16,50.8c-0.877,3.385-3.458,6.065-6.807,7.07l-117.93,35.38
				C51.258,390.365,41,404.15,41,419.481V451h380c5.522,0,10,4.478,10,10S426.522,471,421,471z"></path><linearGradient id="d" x1="461.204" x2="19.204" y1="126.745" y2="580.745" gradientUnits="userSpaceOnUse"><stop offset=".197" stop-color="#fbb03b"></stop><stop offset="1" stop-color="#fcd372"></stop></linearGradient><path fill="url(#d)" d="M291.004,357.003c-0.951,0-1.919-0.137-2.877-0.425l-20-6
				c-3.35-1.005-5.931-3.685-6.808-7.07l-13.16-50.8c-1.385-5.347,1.826-10.804,7.173-12.189c5.347-1.387,10.804,1.826,12.189,7.173
				l11.747,45.348l14.605,4.382c5.29,1.587,8.292,7.162,6.705,12.451C299.278,354.205,295.306,357.003,291.004,357.003z"></path><g><linearGradient id="e" x1="447.542" x2="5.542" y1="113.444" y2="567.444" gradientUnits="userSpaceOnUse"><stop offset=".197" stop-color="#fbb03b"></stop><stop offset="1" stop-color="#fcd372"></stop></linearGradient><path fill="url(#e)" d="M226,372.244c-17.227,0-34.456-6.558-47.571-19.673l-4.5-4.5
				c-3.905-3.905-3.905-10.237,0-14.143c3.906-3.904,10.236-3.904,14.143,0l4.5,4.5c18.432,18.434,48.426,18.434,66.857,0l4.5-4.5
				c3.906-3.904,10.236-3.904,14.143,0c3.905,3.905,3.905,10.237,0,14.143l-4.5,4.5C260.456,365.687,243.227,372.244,226,372.244z"></path></g><g><linearGradient id="f" x1="372.96" x2="-69.04" y1="40.833" y2="494.833" gradientUnits="userSpaceOnUse"><stop offset=".197" stop-color="#fbb03b"></stop><stop offset="1" stop-color="#fcd372"></stop></linearGradient><path fill="url(#f)" d="M226,306c-23.791,0-46.845-8.501-64.914-23.936
				c-15.846-13.536-27.052-31.665-32.08-51.676C110.272,227.07,96,210.671,96,191c0-18.605,12.767-34.283,30-38.734V141
				c0-5.523,4.477-10,10-10s10,4.477,10,10v20c0,5.523-4.477,10-10,10c-11.028,0-20,8.972-20,20s8.972,20,20,20h1.25
				c4.885,0,9.054,3.528,9.862,8.346C153.592,257.968,186.769,286,226,286s72.408-28.032,78.888-66.654
				c0.809-4.817,4.978-8.346,9.862-8.346H316c11.028,0,20-8.972,20-20s-8.972-20-20-20c-5.522,0-10-4.477-10-10v-20
				c0-5.523,4.478-10,10-10s10,4.477,10,10v11.266c17.233,4.451,30,20.13,30,38.734c0,19.67-14.272,36.07-33.006,39.388
				c-5.028,20.011-16.234,38.14-32.08,51.676C272.845,297.499,249.791,306,226,306z"></path></g><g><linearGradient id="g" x1="532.918" x2="90.917" y1="196.564" y2="650.565" gradientUnits="userSpaceOnUse"><stop offset=".197" stop-color="#fbb03b"></stop><stop offset="1" stop-color="#fcd372"></stop></linearGradient><path fill="url(#g)" d="M501,511H11c-5.523,0-10-4.478-10-10v-40c0-5.522,4.477-10,10-10h490
				c5.522,0,10,4.478,10,10v40C511,506.523,506.522,511,501,511z M21,491h470v-20H21V491z"></path></g><g><linearGradient id="h" x1="557.242" x2="115.242" y1="220.245" y2="674.245" gradientUnits="userSpaceOnUse"><stop offset=".197" stop-color="#fbb03b"></stop><stop offset="1" stop-color="#fcd372"></stop></linearGradient><path fill="url(#h)" d="M491,471H291c-5.522,0-10-4.478-10-10V321c0-5.522,4.478-10,10-10h200
				c5.522,0,10,4.478,10,10v140C501,466.523,496.522,471,491,471z M301,451h180V331H301V451z"></path></g><g><linearGradient id="i" x1="557.242" x2="115.24" y1="220.245" y2="674.247" gradientUnits="userSpaceOnUse"><stop offset=".197" stop-color="#fbb03b"></stop><stop offset="1" stop-color="#fcd372"></stop></linearGradient><path fill="url(#i)" d="M391,421c-16.542,0-30-13.458-30-30s13.458-30,30-30s30,13.458,30,30
				S407.542,421,391,421z M391,381c-5.514,0-10,4.486-10,10s4.486,10,10,10s10-4.486,10-10S396.514,381,391,381z"></path></g></svg>